<?xml version="1.0" encoding="utf-8"?>
<!-- Created with TravellingSalesmanProblem (https://github.com/RedGuff/TravellingSalesmanProblem) -->
<svg xmlns="http://www.w3.org/2000/svg" version="1.1"  width="110" height="110">
  <title>Travelling salesman problem images with 10 points.</title>
  <desc>
    10 cities and 9 roads, maybe optimized, or not.
  </desc>
<circle cx="17" cy="19" r="2" fill="blue" />
<circle cx="78" cy="4" r="2" fill="blue" />
<circle cx="89" cy="98" r="2" fill="blue" />
<circle cx="20" cy="0" r="2" fill="blue" />
<circle cx="72" cy="43" r="2" fill="blue" />
<circle cx="87" cy="33" r="2" fill="blue" />
<circle cx="18" cy="45" r="2" fill="blue" />
<circle cx="48" cy="89" r="2" fill="blue" />
<circle cx="24" cy="4" r="2" fill="blue" />
<circle cx="74" cy="42" r="2" fill="blue" />
<line x1="17" y1="19" x2="78" y2="4" stroke="red" />
<line x1="78" y1="4" x2="89" y2="98" stroke="red" />
<line x1="89" y1="98" x2="20" y2="0" stroke="red" />
<line x1="20" y1="0" x2="72" y2="43" stroke="red" />
<line x1="72" y1="43" x2="87" y2="33" stroke="red" />
<line x1="87" y1="33" x2="18" y2="45" stroke="red" />
<line x1="18" y1="45" x2="48" y2="89" stroke="red" />
<line x1="48" y1="89" x2="24" y2="4" stroke="red" />
<line x1="24" y1="4" x2="74" y2="42" stroke="red" />
<line x1="17" y1="19" x2="74" y2="42" stroke="red" />
</svg>